#N canvas 0 96 1920 984 10;
#X obj 30 448 vsl 45 135 -2 2 0 0 empty empty AccelX 0 -9 0 10 -262144
-1 -1 15056 1;
#X obj 80 448 vsl 45 135 -2 2 0 0 empty empty AccelY 0 -9 0 10 -262144
-1 -1 10228 1;
#X obj 130 448 vsl 45 135 -2 2 0 0 empty empty AccelZ 0 -9 0 10 -262144
-1 -1 19146 1;
#X obj 180 448 vsl 45 135 -2000 2000 0 0 empty empty GyroX 0 -9 0 10
-262144 -1 -1 13340 1;
#X obj 230 448 vsl 45 135 -2000 2000 0 0 empty empty GyroY 0 -9 0 10
-262144 -1 -1 13274 1;
#X obj 280 448 vsl 45 135 -2000 2000 0 0 empty empty GyroZ 0 -9 0 10
-262144 -1 -1 13494 1;
#X obj 617 132 timer;
#X floatatom 617 156 8 0 0 0 - - -;
#X obj 617 107 t b b;
#X obj 617 82 r rawtimer;
#N canvas 0 22 450 278 (subpatch) 0;
#X array rawtime 100 float 1;
#A 0 1.45125 8.70748 1.45125 8.70748 1.45125 8.70748 1.45125 8.70748
1.45125 7.25624 1.45125 1.45125 14.5125 1.45125 5.80499 4.35374 10.1587
1.45125 10.1587 5.80499 5.80499 5.80499 4.35374 5.80499 5.80499 4.35374
8.70748 1.45125 8.70748 1.45125 8.70748 1.45125 1.45125 10.1587 5.80499
4.35374 5.80499 8.70748 1.45125 10.1587 1.45125 8.70748 1.45125 10.1587
2.90249 1.45125 5.80499 14.5125 1.45125 4.35374 4.35374 1.45125 8.70748
1.45125 8.70748 1.45125 10.1587 5.80499 4.35374 5.80499 8.70748 1.45125
8.70748 1.45125 11.61 2.90249 7.25624 4.35374 4.35374 1.45125 5.80499
4.35374 5.80499 10.1587 5.80499 4.35374 5.80499 4.35374 5.80499 8.70748
1.45125 8.70748 1.45125 8.70748 1.45125 8.70748 1.45125 10.1587 1.45125
4.35374 5.80499 2.90249 7.25624 2.90249 1.45125 1.45125 5.80499 1.45125
1.45125 1.45125;
#X coords 0 100 99 0 200 140 1;
#X restore 411 79 graph;
#N canvas 264 335 568 475 timegraph 0;
#X obj 111 257 list store;
#X obj 117 300 list split 100;
#X msg 148 105 0 0 0 0 0 0 0 0 0 0 0 0 0 0 0 0 0 0 0 0 0 0 0 0 0 0
0 0 0 0 0 0 0 0 0 0 0 0 0 0 0 0 0 0 0 0 0 0 0 0 0 0 0 0 0 0 0 0 0 0
0 0 0 0 0 0 0 0 0 0 0 0 0 0 0 0 0 0 0 0 0 0 0 0 0 0 0 0 0 0 0 0 0 0
0 0 0 0 0 0;
#X obj 54 178 moses 0;
#X obj 78 215 moses 101;
#X obj 57 59 inlet;
#X obj 173 53 loadbang;
#X obj 123 353 outlet;
#X connect 0 0 1 0;
#X connect 1 0 0 1;
#X connect 1 0 7 0;
#X connect 2 0 0 1;
#X connect 2 0 7 0;
#X connect 3 1 4 0;
#X connect 4 0 0 0;
#X connect 5 0 3 0;
#X connect 6 0 2 0;
#X restore 617 180 pd timegraph;
#X obj 617 204 array set rawtime;
#X floatatom 130 591 7 0 0 0 - - -;
#X floatatom 180 591 7 0 0 0 - - -;
#X floatatom 230 591 7 0 0 0 - - -;
#X floatatom 280 591 7 0 0 0 - - -;
#X floatatom 80 591 7 0 0 0 - - -;
#X floatatom 30 591 7 0 0 0 - - -;
#X obj 97 149 netreceive -u -b;
#X obj 97 170 oscparse;
#X msg 97 126 listen \$1;
#X obj 30 378 unpack f f f;
#X obj 115 378 unpack f f f;
#X obj 27 170 s rawtimer;
#X obj 97 193 route list;
#X obj 70 50 tgl 20 0 empty empty Receive_OSC_messages 22 8 0 10 -262144
-1 -1 1 1;
#X obj 70 78 sel 1;
#X floatatom 638 458 10 0 0 0 - - -;
#X floatatom 704 458 10 0 0 0 - - -;
#X floatatom 772 458 10 0 0 0 - - -;
#X obj 674 434 unpack f f f;
#X floatatom 302 276 4 0 0 1 % - -;
#X text 697 411 YPR;
#X text 312 338 Instrument;
#X obj 350 421 vsl 35 135 0 100 0 0 empty empty ShakeX 0 -9 0 10 -262144
-1 -1 0 1;
#X floatatom 350 564 6 0 0 0 - - -;
#X obj 392 421 vsl 35 135 0 100 0 0 empty empty ShakeY 0 -9 0 10 -262144
-1 -1 4 1;
#X floatatom 392 564 6 0 0 0 - - -;
#X obj 435 421 vsl 35 135 0 100 0 0 empty empty ShakeZ 0 -9 0 10 -262144
-1 -1 0 1;
#X floatatom 435 564 6 0 0 0 - - -;
#X obj 375 377 unpack f f f;
#X obj 476 421 vsl 35 135 -2000 2000 0 0 empty empty JabX 0 -9 0 10
-262144 -1 -1 15486 1;
#X floatatom 476 564 6 0 0 0 - - -;
#X obj 518 421 vsl 35 135 -2000 2000 0 0 empty empty JabY 0 -9 0 10
-262144 -1 -1 14238 1;
#X floatatom 518 564 6 0 0 0 - - -;
#X obj 561 421 vsl 35 135 -2000 2000 0 0 empty empty JabZ 0 -9 0 10
-262144 -1 -1 12728 1;
#X floatatom 561 564 6 0 0 0 - - -;
#X obj 455 377 unpack f f f;
#X obj 70 20 loadbang;
#X msg 60 100 8000;
#X text 273 10 GuitarAMI M5StickC FW220301;
#X text 273 27 Edu Meneses - IDMIL - Mar/2022;
#X text 240 218 Change module NAME!;
#X floatatom 597 370 5 0 0 3 buttonA - -;
#X floatatom 647 370 5 0 0 3 buttonB - -;
#X obj 71 345 route accl gyro, f 16;
#X obj 385 337 route shakexyz jabxyz ypr buttonA buttonB;
#X obj 97 246 route raw instrument battery;
#X obj 638 495 vsl 35 64 -180 180 0 0 empty empty Yall 0 -9 0 10 -262144
-1 -1 0 1;
#X floatatom 638 568 6 0 0 0 - - -;
#X obj 704 495 vsl 35 64 -180 180 0 0 empty empty Pitch 0 -9 0 10 -262144
-1 -1 5692 1;
#X floatatom 704 568 6 0 0 0 - - -;
#X obj 773 495 vsl 35 64 -180 180 0 0 empty empty Roll 0 -9 0 10 -262144
-1 -1 4998 1;
#X floatatom 773 568 6 0 0 0 - - -;
#X obj 97 218 route GuitarAMI_m5_003;
#X connect 0 0 18 0;
#X connect 1 0 17 0;
#X connect 2 0 13 0;
#X connect 3 0 14 0;
#X connect 4 0 15 0;
#X connect 5 0 16 0;
#X connect 6 0 7 0;
#X connect 7 0 11 0;
#X connect 8 0 6 0;
#X connect 8 1 6 1;
#X connect 9 0 8 0;
#X connect 11 0 12 0;
#X connect 19 0 20 0;
#X connect 19 0 24 0;
#X connect 20 0 25 0;
#X connect 21 0 19 0;
#X connect 22 0 0 0;
#X connect 22 1 1 0;
#X connect 22 2 2 0;
#X connect 23 0 3 0;
#X connect 23 1 4 0;
#X connect 23 2 5 0;
#X connect 25 0 65 0;
#X connect 26 0 27 0;
#X connect 27 0 50 0;
#X connect 27 1 21 0;
#X connect 28 0 59 0;
#X connect 29 0 61 0;
#X connect 30 0 63 0;
#X connect 31 0 28 0;
#X connect 31 1 29 0;
#X connect 31 2 30 0;
#X connect 35 0 36 0;
#X connect 37 0 38 0;
#X connect 39 0 40 0;
#X connect 41 0 35 0;
#X connect 41 1 37 0;
#X connect 41 2 39 0;
#X connect 42 0 43 0;
#X connect 44 0 45 0;
#X connect 46 0 47 0;
#X connect 48 0 42 0;
#X connect 48 1 44 0;
#X connect 48 2 46 0;
#X connect 49 0 26 0;
#X connect 50 0 21 0;
#X connect 56 0 22 0;
#X connect 56 1 23 0;
#X connect 57 0 41 0;
#X connect 57 1 48 0;
#X connect 57 2 31 0;
#X connect 57 3 54 0;
#X connect 57 4 55 0;
#X connect 58 0 56 0;
#X connect 58 1 57 0;
#X connect 58 2 32 0;
#X connect 59 0 60 0;
#X connect 61 0 62 0;
#X connect 63 0 64 0;
#X connect 65 0 58 0;
#X coords 0 0 1 1 470 216 0;
