#N canvas -6 1076 1912 1003 12;
#X text 13 13 GuitarAMI module tester;
#X obj 17 84 cnv 15 1300 520 empty empty empty 20 12 0 14 #000000 #404040
0;
#X obj 12 79 cnv 15 1300 520 empty empty OSC 20 12 0 14 #dcdcdc #404040
0;
#X obj 730 159 timer;
#X floatatom 730 183 8 0 0 0 - - - 0;
#X obj 730 134 t b b;
#X obj 730 109 r rawtimer;
#N canvas 0 22 450 278 (subpatch) 0;
#X array rawtime 100 float 1;
#A 0 5.80499 15.9637 0 0 4.35374 0 0 0 0 27.5737 0 0 4.35374 0 0 0
5.80499 15.9637 5.80499 0 1.45125 2.90249 0 0 0 21.7687 5.80499 0 0
0 0 0 4.35374 21.7687 4.35374 0 0 0 0 0 5.80499 21.7687 0 0 4.35374
0 0 0 0 21.7687 4.35374 0 0 0 0 5.80499 0 21.7687 0 0 0 0 0 0 0 26.1224
5.80499 0 0 0 0 0 0 26.1224 0 0 0 0 0 5.80499 4.35374 15.9637 5.80499
0 0 4.35374 0 0 0 21.7687 5.80499 0 0 0 0 0 4.35374 21.7687 0 4.35374
;
#X coords 0 100 99 0 200 140 1;
#X restore 524 106 graph;
#N canvas 264 335 568 475 timegraph 0;
#X obj 111 257 list store;
#X obj 117 300 list split 100;
#X msg 148 105 0 0 0 0 0 0 0 0 0 0 0 0 0 0 0 0 0 0 0 0 0 0 0 0 0 0
0 0 0 0 0 0 0 0 0 0 0 0 0 0 0 0 0 0 0 0 0 0 0 0 0 0 0 0 0 0 0 0 0 0
0 0 0 0 0 0 0 0 0 0 0 0 0 0 0 0 0 0 0 0 0 0 0 0 0 0 0 0 0 0 0 0 0 0
0 0 0 0 0 0;
#X obj 54 178 moses 0;
#X obj 78 215 moses 101;
#X obj 57 59 inlet;
#X obj 173 53 loadbang;
#X obj 123 353 outlet;
#X connect 0 0 1 0;
#X connect 1 0 0 1;
#X connect 1 0 7 0;
#X connect 2 0 0 1;
#X connect 2 0 7 0;
#X connect 3 1 4 0;
#X connect 4 0 0 0;
#X connect 5 0 3 0;
#X connect 6 0 2 0;
#X restore 730 207 pd timegraph;
#X obj 730 231 array set rawtime;
#X obj 96 131 netreceive -u -b;
#X obj 96 152 oscparse;
#X obj 19 152 s rawtimer;
#X obj 96 176 route list;
#X msg 96 97 listen 8000;
#X obj 96 200 route GuitarAMI_001;
#X obj 184 304 vsl 15 90 0 800 0 0 empty empty empty 0 -9 0 10 #fcfcfc
#000000 #000000 0 1;
#X floatatom 184 278 5 0 0 0 - - - 0;
#X text 236 119 Change the instrument's NAME!;
#X floatatom 39 278 5 0 0 0 - - - 0;
#X floatatom 287 372 10 0 0 2 _____X_____ - - 0;
#X floatatom 364 372 10 0 0 2 _____Y_____ - - 0;
#X floatatom 439 372 10 0 0 2 _____Z_____ - - 0;
#X obj 324 326 unpack f f f;
#X floatatom 553 372 10 0 0 2 _____X_____ - - 0;
#X floatatom 629 372 10 0 0 2 _____Y_____ - - 0;
#X floatatom 705 372 10 0 0 2 _____Z_____ - - 0;
#X obj 608 326 unpack f f f;
#X floatatom 274 538 10 0 0 2 ___Q1(I)___ - - 0;
#X floatatom 348 538 10 0 0 2 ___Q2(J)___ - - 0;
#X floatatom 423 538 10 0 0 2 ___Q3(K)___ - - 0;
#X floatatom 584 538 10 0 0 2 ____yaw____ - - 0;
#X floatatom 661 538 10 0 0 2 ___pitch___ - - 0;
#X floatatom 737 538 10 0 0 2 ___roll___ - - 0;
#X obj 623 482 unpack f f f;
#X obj 326 482 unpack f f f f;
#X floatatom 500 538 10 0 0 2 _Q4(Real)_ - - 0;
#X floatatom 97 270 2 0 0 0 - - - 0;
#X obj 97 293 tgl 15 0 empty empty empty 17 7 0 10 #fcfcfc #000000
#000000 0 1;
#X obj 97 314 bng 15 250 50 0 empty empty empty 17 7 0 10 #fcfcfc #000000
#000000;
#X floatatom 119 270 2 0 0 0 - - - 0;
#X obj 119 293 tgl 15 0 empty empty empty 17 7 0 10 #fcfcfc #000000
#000000 0 1;
#X obj 119 314 bng 15 250 50 0 empty empty empty 17 7 0 10 #fcfcfc
#000000 #000000;
#X floatatom 139 270 2 0 0 0 - - - 0;
#X obj 139 293 tgl 15 0 empty empty empty 17 7 0 10 #fcfcfc #000000
#000000 0 1;
#X obj 139 314 bng 15 250 50 0 empty empty empty 17 7 0 10 #fcfcfc
#000000 #000000;
#X text 105 400 ultrasonic sensor (cm);
#X obj 354 271 s quat;
#X obj 326 453 r quat;
#X obj 623 453 r ypr;
#X obj 405 271 s ypr;
#X text 92 331 tap;
#X text 92 346 double tap;
#X text 92 362 triple tap;
#X text 36 299 touch;
#X text 36 314 count;
#X text 288 392 accelerometer (IMU) (in m/s^2);
#X text 529 392 Gyroscope (IMU)(in radians per second);
#X floatatom 44 537 10 0 0 2 _____X_____ - - 0;
#X floatatom 121 537 10 0 0 2 _____Y_____ - - 0;
#X floatatom 196 537 10 0 0 2 _____Z_____ - - 0;
#X obj 91 481 unpack f f f;
#X text 48 559 Magnetometer (IMU) (in uTesla);
#X text 330 556 Quaternions (software);
#X text 894 91 ## OSC namespaces;
#X text 894 110 - continuous:;
#X text 894 246 - discrete:;
#X obj 608 302 r gyro;
#X obj 252 271 s gyro;
#X obj 450 271 s shake;
#X obj 508 271 s jab;
#X floatatom 823 538 10 0 0 2 _____X_____ - - 0;
#X floatatom 899 538 10 0 0 2 _____Y_____ - - 0;
#X floatatom 975 538 10 0 0 2 _____Z_____ - - 0;
#X obj 878 492 unpack f f f;
#X obj 878 468 r shake;
#X floatatom 1061 538 10 0 0 2 _____X_____ - - 0;
#X floatatom 1137 538 10 0 0 2 _____Y_____ - - 0;
#X floatatom 1213 538 10 0 0 2 _____Z_____ - - 0;
#X obj 1116 492 unpack f f f;
#X obj 1116 468 r jab;
#X text 894 335 - Instrument:;
#X text 1060 557 Jab (instrument data) (in rad/sec);
#X text 815 557 Shake (instrument data) (in rad/sec);
#X floatatom 612 272 6 0 0 1 battery_percentage - - 0;
#X obj 554 271 s touch;
#X obj 22 364 r touch;
#X floatatom 22 388 5 0 0 0 - - - 0;
#X text 19 409 touch;
#X text 19 424 value;
#N canvas 505 91 793 453 xy 0;
#X obj 53 53 cnv 15 200 200 \$0-xy_fundo_send \$0-xy_fundo_r empty
20 12 0 14 #e0e0e0 #404040 0;
#X obj 63 59 cnv 10 44 20 \$0-xy_mao_send \$0-xy_mao_r Head 6 10 0
14 #905420 #fcfcfc 0;
#X obj 153 108 cnv 10 42 20 \$0-xy_corpo_send \$0-xy_corpo_r Body 4
10 0 14 #905420 #fcfcfc 0;
#X obj 344 63 inlet;
#X obj 514 53 inlet;
#X floatatom 344 184 5 53 233 0 - - - 0;
#X obj 344 228 pack \$0 f;
#X obj 514 228 pack \$0 f;
#X obj 344 206 t b f;
#X floatatom 514 184 5 53 253 0 - - - 0;
#X obj 514 206 t b f;
#X text 352 18 inserir X e Y entre 0 e 199;
#X obj 344 159 + 53;
#X obj 514 159 + 53;
#X obj 411 87 loadbang;
#X msg 411 110 153;
#X text 250 329 Edu Meneses (2015);
#X text 239 357 Released under GNU GPL;
#X text 250 343 www.edumeneses.com;
#X msg 344 248 \; \$1-xy_mao_r pos 63 \$2;
#X obj 344 84 moses 0;
#X obj 344 109 moses 181;
#X obj 514 84 moses 0;
#X obj 514 109 moses 181;
#X msg 514 248 \; \$1-xy_corpo_r pos 153 \$2;
#X msg 523 134 179;
#X msg 355 135 179;
#X msg 316 109 0;
#X msg 456 109 0;
#X obj 423 214 s mao;
#X obj 592 202 s corpo;
#X obj 592 159 - 232;
#X obj 592 180 * -1;
#X connect 3 0 20 0;
#X connect 4 0 22 0;
#X connect 5 0 8 0;
#X connect 6 0 19 0;
#X connect 7 0 24 0;
#X connect 8 0 6 0;
#X connect 8 1 6 1;
#X connect 8 1 29 0;
#X connect 9 0 10 0;
#X connect 10 0 7 0;
#X connect 10 1 7 1;
#X connect 10 1 31 0;
#X connect 12 0 5 0;
#X connect 13 0 9 0;
#X connect 14 0 15 0;
#X connect 15 0 9 0;
#X connect 15 0 5 0;
#X connect 20 0 27 0;
#X connect 20 1 21 0;
#X connect 21 0 12 0;
#X connect 21 1 26 0;
#X connect 22 0 28 0;
#X connect 22 1 23 0;
#X connect 23 0 13 0;
#X connect 23 1 25 0;
#X connect 25 0 13 0;
#X connect 26 0 12 0;
#X connect 27 0 12 0;
#X connect 28 0 13 0;
#X connect 31 0 32 0;
#X connect 32 0 30 0;
#X coords 0 -1 1 1 206 206 2 50 50;
#X restore 1387 199 pd xy;
#X obj 737 575 s head;
#X obj 583 577 s body;
#X obj 1385 62 r head;
#X obj 1494 62 r body;
#X obj 1385 90 * -1;
#X floatatom 1385 136 5 0 0 0 - - - 0;
#X obj 1385 113 - 10;
#X obj 1385 158 moses 0;
#X obj 1495 90 * -1;
#X floatatom 1495 136 5 0 0 0 - - - 0;
#X obj 1495 158 moses 0;
#X obj 1495 113 + 60;
#X obj 229 320 bng 15 250 50 0 empty empty empty 17 7 0 10 #fcfcfc
#000000 #000000;
#X text 201 335 Ultrasonic;
#X text 211 351 trigger;
#X msg 226 97 symbol GuitarAMI_006;
#X obj 111 454 r mag;
#X obj 303 271 s mag;
#X obj 96 224 route count tap dtap ttap ult accl gyro mag quat ypr
shake jab battery touch ultTrig;
#X text 13 29 Edu Meneses (2020-2022);
#X text 12 45 SAT/Metalab | IDMIL | CIRMMT | McGill University;
#X text 595 557 YPR (software) (in degrees);
#X text 907 129 - /GuitarAMI_XXX/ult [int] (in mm);
#X text 907 145 - /GuitarAMI_XXX/accl [float] [float] [float] (in m/s^2)
;
#X text 907 172 - /GuitarAMI_XXX/gyro [float] [float] [float] (in radians
per second);
#X text 908 199 - /GuitarAMI_XXX/magn [float] [float] [float] (in uTesla)
;
#X text 909 227 - /GuitarAMI_XXX/quat [float] [float] [float];
#X text 909 262 - /GuitarAMI_XXX/tap [0 or 1];
#X text 909 278 - /GuitarAMI_XXX/dtap [0 or 1];
#X text 909 296 - /GuitarAMI_XXX/ttap [0 or 1];
#X text 908 314 - /GuitarAMI_XXX/battery [int] (percentage);
#X text 909 352 - /GuitarAMI_XXX/shake [float] [float] [float];
#X text 909 369 - /GuitarAMI_XXX/jab [float] [float] [float];
#X text 909 387 - /GuitarAMI_XXX/ultTrig [int] [0 or 1];
#X text 909 406 - /GuitarAMI_XXX/count [int];
#X text 910 423 - /GuitarAMI_XXX/ypr [float] [float] [float] (in degrees)
;
#X connect 3 0 4 0;
#X connect 4 0 8 0;
#X connect 5 0 3 0;
#X connect 5 1 3 1;
#X connect 6 0 5 0;
#X connect 8 0 9 0;
#X connect 10 0 11 0;
#X connect 10 0 12 0;
#X connect 11 0 13 0;
#X connect 13 0 15 0;
#X connect 14 0 10 0;
#X connect 15 0 109 0;
#X connect 17 0 16 0;
#X connect 23 0 20 0;
#X connect 23 1 21 0;
#X connect 23 2 22 0;
#X connect 27 0 24 0;
#X connect 27 1 25 0;
#X connect 27 2 26 0;
#X connect 31 0 92 0;
#X connect 33 0 91 0;
#X connect 34 0 31 0;
#X connect 34 1 32 0;
#X connect 34 2 33 0;
#X connect 35 0 28 0;
#X connect 35 1 29 0;
#X connect 35 2 30 0;
#X connect 35 3 36 0;
#X connect 37 0 38 0;
#X connect 38 0 39 0;
#X connect 40 0 41 0;
#X connect 41 0 42 0;
#X connect 43 0 44 0;
#X connect 44 0 45 0;
#X connect 48 0 35 0;
#X connect 49 0 34 0;
#X connect 61 0 58 0;
#X connect 61 1 59 0;
#X connect 61 2 60 0;
#X connect 67 0 27 0;
#X connect 74 0 71 0;
#X connect 74 1 72 0;
#X connect 74 2 73 0;
#X connect 75 0 74 0;
#X connect 79 0 76 0;
#X connect 79 1 77 0;
#X connect 79 2 78 0;
#X connect 80 0 79 0;
#X connect 86 0 87 0;
#X connect 93 0 95 0;
#X connect 94 0 99 0;
#X connect 95 0 97 0;
#X connect 96 0 98 0;
#X connect 97 0 96 0;
#X connect 98 1 90 0;
#X connect 99 0 102 0;
#X connect 100 0 101 0;
#X connect 101 1 90 1;
#X connect 102 0 100 0;
#X connect 106 0 15 1;
#X connect 107 0 61 0;
#X connect 109 0 19 0;
#X connect 109 1 37 0;
#X connect 109 2 40 0;
#X connect 109 3 43 0;
#X connect 109 4 17 0;
#X connect 109 5 23 0;
#X connect 109 6 68 0;
#X connect 109 7 108 0;
#X connect 109 8 47 0;
#X connect 109 9 50 0;
#X connect 109 10 69 0;
#X connect 109 11 70 0;
#X connect 109 12 84 0;
#X connect 109 13 85 0;
#X connect 109 14 103 0;
